<?xml version="1.0" encoding="utf-8"?>
<!-- Generator: Adobe Illustrator 21.0.2, SVG Export Plug-In . SVG Version: 6.00 Build 0)  -->
<svg version="1.1" id="Capa_1" xmlns="http://www.w3.org/2000/svg" xmlns:xlink="http://www.w3.org/1999/xlink" x="0px" y="0px"
	 viewBox="0 0 90 90" style="enable-background:new 0 0 90 90;" xml:space="preserve">
<style type="text/css">
	.st0{fill:#FFFFFF;}
</style>
<circle class="st0" cx="74.3" cy="22" r="3.2"/>
<circle class="st0" cx="57.6" cy="22" r="3.2"/>
<path class="st0" d="M65.9,33.5c-4.7,0-8.6,2.5-9.3,5.8h18.7C74.5,36,70.6,33.5,65.9,33.5z"/>
<path class="st0" d="M24.1,85.8c13.3,0,24.1-10.8,24.1-24.1V33.5H0v28.3C0,75,10.8,85.8,24.1,85.8z M6.3,39.8h35.5v21.9
	c0,9.8-8,17.8-17.8,17.8s-17.8-8-17.8-17.8V39.8z"/>
<path class="st0" d="M90,32.4V4.2H41.8v21h6.3V10.5h35.5v21.9c0,9.8-8,17.8-17.8,17.8c-3.3,0-6.6-1-9.4-2.8v7.2
	c3,1.3,6.2,1.9,9.4,1.9C79.2,56.5,90,45.7,90,32.4z"/>
<circle class="st0" cx="15.7" cy="51.3" r="3.2"/>
<circle class="st0" cx="32.4" cy="51.3" r="3.2"/>
<path class="st0" d="M24.1,68.6c4.7,0,8.6-2.5,9.3-5.8H14.7C15.4,66,19.4,68.6,24.1,68.6z"/>
</svg>
