<?xml version="1.0" encoding="utf-8"?>
<!-- Generator: Adobe Illustrator 21.0.2, SVG Export Plug-In . SVG Version: 6.00 Build 0)  -->
<svg version="1.1" id="Capa_1" xmlns="http://www.w3.org/2000/svg" xmlns:xlink="http://www.w3.org/1999/xlink" x="0px" y="0px"
	 viewBox="0 0 90 90" style="enable-background:new 0 0 90 90;" xml:space="preserve">
<style type="text/css">
	.st0{fill:#FFFFFF;}
</style>
<path id="path26" class="st0" d="M45.2,90c-0.1,0-9.2-5.2-20.3-11.6L4.8,66.9l0-33.4L4.8,0H45h40.2l0,33.6l0,33.6L65.3,78.6
	C54.3,84.9,45.3,90,45.2,90L45.2,90z M45.1,82.8c0.1,0,7.8-4.4,17.2-9.7l17-9.7l0-28.6l0-28.6H45.1H10.8l0,28.6l0,28.6l17,9.7
	C37.3,78.4,45,82.8,45.1,82.8L45.1,82.8z"/>
<path id="path24" class="st0" d="M42.4,74.1c-0.1,0-1.4-0.7-2.8-1.5L36.9,71l0-11.1l0-11.1L27,54.4c-6.4,3.6-9.9,5.5-10.1,5.5h-0.3
	V36.1V12.3h2.9h2.9l0,18.6l0,18.6l7.2-4.1l7.2-4.1V29.7V18.1h-1.5h-1.5l-2-2.5c-1.1-1.4-2.1-2.7-2.2-2.9l-0.2-0.4h11.9h11.9l0,9.7
	l0,9.7l2.2-1.3l2.2-1.3v-8.5v-8.5h7.8h7.8v2.9v2.9h-4.9h-4.9V22c0,2.2,0,3.9,0,3.9c0,0,1.5-0.8,3.2-1.8c1.7-1,3.3-1.9,3.5-2l0.4-0.1
	l0,3.7l0,3.7l-3.6,2l-3.6,2l0,15.9l0,15.9l-2.7,1.5c-1.5,0.9-2.8,1.5-2.9,1.5c-0.1,0-0.1-2-0.1-15.7c0-10.9,0-15.6-0.1-15.6
	c-0.1,0-3.5,2-7.6,4.3l-7.5,4.3l0,14.3C42.6,72.4,42.5,74,42.4,74.1L42.4,74.1z M43.1,37.7c0.3-0.2,1.4-0.8,2.5-1.4l2-1.2l0-8.6
	l0-8.6h-2.5h-2.5v10v10L43.1,37.7L43.1,37.7z"/>
</svg>
