<?xml version="1.0" encoding="utf-8"?>
<!-- Generator: Adobe Illustrator 21.0.2, SVG Export Plug-In . SVG Version: 6.00 Build 0)  -->
<svg version="1.1" id="Capa_1" xmlns="http://www.w3.org/2000/svg" xmlns:xlink="http://www.w3.org/1999/xlink" x="0px" y="0px"
	 viewBox="0 0 90 90" style="enable-background:new 0 0 90 90;" xml:space="preserve">
<style type="text/css">
	.st0{fill:#FFFFFF;}
</style>
<g>
	<polygon class="st0" points="79,69.9 79,69.9 79,69.9 	"/>
	<path class="st0" d="M28.1,17.2c5.9-3.3,12.8-5.2,20.1-5.2c3.8,0,7.5,0.5,11,1.5c0.3-3.3,1.1-7.4,2.6-10.3
		c-3.6,2.7-5.7,5.6-5.9,5.9c-0.1-0.7-0.4-5.7-0.6-9.1c-1.4,1.5-7,7.5-7.9,8.5C46.4,7.3,41.8,0,41.8,0s-2.6,7.3-3.3,9.5
		c-1.8-1.2-7.3-4.9-9.7-6.6c0.5,3.1,1.3,8,1.5,9c-0.5-0.4-3.1-2.7-7.2-4.5C25.3,10.1,27,14.1,28.1,17.2z"/>
	<path class="st0" d="M73,34.3l-0.3,2.3l-3.1-3.2c0,0,0.6-0.3,1.1-0.9c0-0.3-0.2-1.9-1.5-2.9c-1.2,0.3-2.1,1-2.6,1.7
		c-1.7-1.5-3.6-2.1-3.6-2.1c0.3,0.3,2.3,3,2.6,3.7c1.8,1.5,4.2,3.2,5.8,5.3c-1.3-1.5-7.6-1.8-10.5-0.3c0,0-2.8-3.3-5.5-5.5
		c-0.5-2,1.3-3.6,1.3-3.6s-1.8-0.1-3.6,1.6c-2.6-1.9-5.9-2.8-5.9-2.8c-3.7,0.6-6.2,3.1-6.2,3.1c0.9,0.5,2,1.2,3,1.6
		c2,0.8,3.9,0.5,5.2,0.5c1,0,2.4,0.3,2.4,0.3s2.5,1.8,6.1,5.8c-5.4-2.1-11.2,0.3-15.2-1.7c-4.7-2.3-4.4-5.9-4.4-5.9
		s-3.2-0.4-3.2-0.5c0,0,2.3-3,5.9-4.1L39,25.1c2.1-1.8,5.9-4,11.9-4.9c0,0,2.7,1,8.1,4.8c0.9-1.2,1.2-3.8,1.2-3.8
		c2.7,1,8.5,5,10.7,7.5c-1.2-2.8-2.1-4.6-2.4-7.6c-1.4-1.3-4.8-4.1-11.8-5.8c1.1,2.3,1,4.2,1,4.2c-1.3-1.6-4.1-4.2-6-5
		c-1.2-0.1-2.4-0.2-3.6-0.2c-6.5,0-12.6,1.5-18,4.2h0c2.9,0.2,4.8,2.5,5.4,4.4c-2.2-1.7-5.6-2.4-7.7-0.3c-2,2.1-1.8,6.3,0.1,9.6
		c-4.6-2.3-4.6-8.2-3-10.7l0,0c-5.2,3.7-9.5,8.6-12.4,14.3h0l4.2,0.7C12.1,42,8.8,51.5,8.8,56l6.7-2C14.3,57.9,14,71.2,18,77.8
		c0,0,5.3-3.5,11.3-12.6c2.6,8.1,1.4,14.9,0,21.6c10.8,6,23.4,2.6,30.8-2.6l1.3,5.1c8.7-5.6,13.4-13.5,14.3-22.9l3.2,3.5
		C83.9,55.5,80.1,44.1,73,34.3z M54,54.5c-2.2-4.1-4.3-7.9-4.3-7.9s6-4.9,11-5.6c2.5,1.9,4.8,2.6,4.8,2.6l0,5.1h0
		C63.8,50.2,58,55,54,54.5z M70.7,57.9c-0.9,4.2-3.3,6.9-5,7.9c0.2-3.1-0.7-5.7-0.7-5.7c-1.3,1.4-4.4,2.8-6.1,3.2
		c-0.9-1.7-2.7-4.9-2.7-4.9c3.2-0.1,8.5-4.5,8.5-4.5l3.9-0.1C70.3,55.8,70.7,57.9,70.7,57.9L70.7,57.9z M72.5,53.9
		c-1-2.3-2.4-3.6-3.8-5.1l0-5.1c0,0,1.7-0.9,3.6-2.5h0C74.1,45.4,74.5,50.4,72.5,53.9z"/>
</g>
</svg>
