<?xml version="1.0" encoding="utf-8"?>
<!-- Generator: Adobe Illustrator 21.0.2, SVG Export Plug-In . SVG Version: 6.00 Build 0)  -->
<svg version="1.1" id="Capa_1" xmlns="http://www.w3.org/2000/svg" xmlns:xlink="http://www.w3.org/1999/xlink" x="0px" y="0px"
	 viewBox="0 0 24 24" style="enable-background:new 0 0 24 24;" xml:space="preserve">
<style type="text/css">
	.st0{fill:#E11F26;}
</style>
<path class="st0" d="M12,5.9c-3.4,0-6.1,2.7-6.1,6.1s2.7,6.1,6.1,6.1s6.1-2.7,6.1-6.1S15.4,5.9,12,5.9z M12,16c-2.2,0-4-1.8-4-4
	s1.8-4,4-4s4,1.8,4,4S14.2,16,12,16L12,16z M19.8,5.6c0,0.8-0.6,1.5-1.5,1.5s-1.5-0.6-1.5-1.5s0.6-1.5,1.5-1.5S19.8,4.8,19.8,5.6z
	 M23.9,7.1c-0.1-1.9-0.5-3.7-1.9-5s-3.1-1.8-5-1.9c-2-0.1-8-0.1-9.9,0C5.1,0.2,3.4,0.7,2,2S0.2,5.1,0.1,7C0,9,0,15,0.1,16.9
	s0.5,3.7,1.9,5s3.1,1.8,5,1.9c2,0.1,8,0.1,9.9,0s3.7-0.5,5-1.9s1.8-3.1,1.9-5C24,14.9,24,9.1,23.9,7.1L23.9,7.1z M21.3,19
	c-0.5,1-1.2,1.8-2.3,2.3c-1.6,0.6-5.3,0.5-7,0.5S6.5,22,5,21.3c-1-0.5-1.8-1.2-2.3-2.3c-0.6-1.6-0.5-5.3-0.5-7S2,6.5,2.6,5
	c0.5-1,1.2-1.8,2.3-2.3c1.6-0.6,5.3-0.5,7-0.5s5.5-0.2,7,0.5c1,0.5,1.8,1.2,2.3,2.3c0.6,1.6,0.5,5.3,0.5,7S21.9,17.5,21.3,19z"/>
</svg>
