<?xml version="1.0" encoding="utf-8"?>
<!-- Generator: Adobe Illustrator 21.0.2, SVG Export Plug-In . SVG Version: 6.00 Build 0)  -->
<svg version="1.1" id="Capa_1" xmlns="http://www.w3.org/2000/svg" xmlns:xlink="http://www.w3.org/1999/xlink" x="0px" y="0px"
	 viewBox="0 0 90 90" style="enable-background:new 0 0 90 90;" xml:space="preserve">
<style type="text/css">
	.st0{fill:#FFFFFF;}
</style>
<path class="st0" d="M45,5.5C23.2,5.5,5.5,23.2,5.5,45c0,21.8,17.7,39.5,39.5,39.5c21.8,0,39.5-17.7,39.5-39.5
	C84.5,23.2,66.8,5.5,45,5.5z M55.9,13.5c7.5,2.5,13.9,7.8,18,14.8l0.9,1.5H60.3L60.1,29c-1.2-4.8-3-9.6-5.4-14.1l-1.2-2.3L55.9,13.5
	z M56.2,45c0,3.1-0.4,6-0.7,8.3l-0.1,0.9H34.7l-0.1-0.9c-0.4-2.7-0.6-5.4-0.6-8.3c0-2.8,0.3-5.6,0.6-8.2l0.1-0.9h20.8l0.1,0.9
	C56,39.3,56.2,42.2,56.2,45z M45,11l0.8,1.2c3.6,5.3,6.3,10.8,7.8,16.3l0.4,1.3H35.9l0.4-1.3c1.6-5.5,4.2-11,7.8-16.3L45,11z
	 M16.1,28.3c4.1-7.1,10.5-12.3,18.1-14.8l2.5-0.8l-1.3,2.3c-2.3,4.1-4.1,8.8-5.5,14.1l-0.2,0.8H15.2L16.1,28.3z M12.7,53.4
	c-0.8-2.7-1.2-5.6-1.2-8.4s0.4-5.7,1.2-8.4l0.2-0.7h15.6l-0.2,1.2c-0.4,2.9-0.5,5.8-0.5,7.9c0,2,0.2,4.1,0.3,6
	c0.1,0.7,0.1,1.3,0.2,2l0.1,1.1H12.9L12.7,53.4z M34.2,76.5c-7.6-2.5-14.1-7.8-18.1-14.8l-0.9-1.5h14.6L30,61
	c1.2,4.8,3,9.6,5.4,14.1l1.2,2.3L34.2,76.5z M45,79l-0.8-1.2c-3.6-5.3-6.3-10.8-7.8-16.3l-0.4-1.3h18.2l-0.4,1.3
	c-1.7,5.6-4.4,11-7.9,16.3L45,79z M74,61.7c-4.2,7.1-10.7,12.3-18.1,14.8l-2.5,0.8l1.2-2.3c2.4-4.4,4.2-9.1,5.4-14.1l0.2-0.8h14.6
	L74,61.7z M77.1,54.1H61.5l0.2-1.2c0.4-2.9,0.5-5.8,0.5-8c0-2-0.2-4.1-0.3-6.1c-0.1-0.7-0.1-1.3-0.2-2l-0.1-1.1h15.6l0.2,0.8
	c0.5,2.1,1.2,5.2,1.2,8.3c0,2.8-0.4,5.7-1.2,8.4L77.1,54.1z"/>
</svg>
