<?xml version="1.0" encoding="utf-8"?>
<!-- Generator: Adobe Illustrator 21.0.2, SVG Export Plug-In . SVG Version: 6.00 Build 0)  -->
<svg version="1.1" id="Capa_1" xmlns="http://www.w3.org/2000/svg" xmlns:xlink="http://www.w3.org/1999/xlink" x="0px" y="0px"
	 viewBox="0 0 92 60" style="enable-background:new 0 0 92 60;" xml:space="preserve">
<style type="text/css">
	.st0{fill:#F8C200;}
	.st1{fill:#EA0022;}
</style>
<g>
	<path d="M13.7,60c-0.3,0-0.6,0-0.9-0.1l-0.1,0c-2.7-0.7-6.9-2.8-9.7-4.2c-0.8-0.4-1.5-0.7-1.9-0.9l-0.9-0.4l0.4-0.9
		c0-0.1,1-3.3,0.9-13.7l0-1.2l1.2,0.2c0,0,0.4,0,1,0c1,0,2.7-0.1,4.7-0.7c3.2-1,5.5-2,7.6-3.6c1-0.7,1.8-1.3,2.3-1.6
		c-0.4-0.8-0.8-1.9-0.5-3.2c0.2-1.1,0.9-2.1,2-3c-0.3-0.5-0.8-1.3-1.6-2c-1.4-1.4-2.6-2.6-4.2-3.5L13,20.5l0.9-1
		c2.1-2.2,6.3-6.6,7-7.5c0.2-0.3,1.3-1.6,3-2c0.4-0.1,0.8-0.1,1.2-0.1c0.2,0,0.4,0,0.6,0c0-1.3,0.4-3.3,2-4.9c1.5-1.5,3-2.2,4.7-2.2
		c1.1,0,2.2,0.3,3.5,0.8c2.5,1.1,10.3,4.6,12.3,5.6c1-0.5,3.3-1.7,5.9-2.5c1.1-0.3,2.1-0.5,3.1-0.5c1.3,0,2.3,0.3,3,0.6
		c0.3-0.8,0.7-1.8,1.4-2.8C63.5,1.4,66.2,0,69.4,0c0.1,0,0.2,0,0.4,0c3.5,0.1,6.4,1.8,8.3,4.7c1.6,2.5,2.1,5.7,1.3,8.3
		c1.7,0.7,5.3,2.3,7,3.4c3.3,2,6.4,6.3,4.9,12.3c-0.7,2.7-2.3,4.9-4.8,6.3c-1.9,1.1-4.2,1.7-6.3,1.7c-0.6,0-1.1,0-1.6-0.1
		c-0.2,0-1.2-0.2-2.3-0.8c-0.3-0.1-0.5-0.3-0.7-0.4c-0.2,1.4-1.5,4.6-5.3,5.4c-0.6,0.1-1.1,0.2-1.7,0.2c-1.3,0-2.4-0.3-3.2-0.7
		l0.5,0.9l-1.3,0.4l-6.9,1.9l-0.3-0.1c-0.1,0-0.9-0.3-1.5-0.7l0.5,1L55.5,44c-0.1,0-8.5,3-12.8,5.5c-4.8,2.7-11,5.9-14.9,7.5
		c-3.8,1.6-5.2,1.6-6.6,1.7c-0.2,0-0.3,0-0.5,0c-1,0-1.9-0.3-2.4-0.6C17.4,58.8,15.7,60,13.7,60z"/>
	<path class="st0" d="M2.6,39.7c0,0,2.6,0.3,6.1-0.7c3.5-1,5.9-2.2,8-3.7c2.1-1.5,3.1-2.1,3.1-2.1s-2.9-3.7,1.4-6.1
		c0,0-0.7-1.6-2.2-3.1c-1.5-1.5-2.7-2.7-4.4-3.7c0,0,6.3-6.5,7.1-7.6c0,0,0.9-1.3,2.4-1.6s2.7,0.2,2.7,0.2S26.1,8,28.3,5.9
		s4.3-2.3,7.2-1.1c2.8,1.2,12.7,5.8,12.7,5.8s2.9-1.7,6.2-2.7c3.3-1,5.3-0.1,6,0.4c0.7,0.5,0.4,0.2,0.4,0.2s1.6-7.6,8.9-7.4
		c7.3,0.2,10.4,7.8,8.4,12.5c0,0,5.6,2.4,7.8,3.7c2.2,1.3,6,5,4.5,11.2c-1.5,6.3-8.6,7.8-11.5,7.1c0,0-1-0.1-2-0.7
		c-1.1-0.5-1.2-0.8-1.6-0.8c-0.5,0.1-0.4,0.2-0.5,0.9c-0.1,0.7-0.9,4-4.5,4.8c-3.6,0.8-5.5-1.4-5.5-1.4s-1.2-0.5-1,0.4
		s0.8,1.7,0.8,1.7l-6.6,1.8c0,0-1.2-0.4-1.9-0.9c-0.6-0.5-1.4-0.7-1.4,0c0,0.7,0.4,1.6,0.4,1.6s-8.5,3-13,5.5
		c-4.5,2.5-10.8,5.8-14.8,7.5c-4,1.7-5.2,1.5-6.7,1.6c-1.5,0.1-2.5-0.9-2.5-0.9s-2.2,2.6-5.2,2.2c-3.4-0.8-9.5-4.2-11.3-5.1
		C1.6,53.8,2.7,50.9,2.6,39.7z"/>
	<path d="M82.5,18.9c-1.6-1.5-9.4-4.8-9.4-4.8l0,0c-0.4-0.2-0.8-0.4-1.1-0.6l-2.1-1.1c-0.2-0.1-0.5-0.2-0.7-0.3
		c-0.3-0.2-0.6-0.5-0.7-1c0.1,0,0.3,0,0.5,0c0.1,0,0.2,0,0.3,0l2.4,1.2c0,0,2.6,0.8,3.6-1.4c1-2.2-0.4-3.4-1.9-4.2
		c-1.4-0.8-3.9-2-5.1-2c-0.1,0-0.2,0-0.3,0c-1.1,0-2.1,0.3-2.9,0.9c-1.1,0.7-2.1,2.2-2.5,3.5c-0.3,1.1-0.1,2.4,0.4,3.9
		c-0.8-0.4-2-0.9-3-1.3c-1.1-0.6-2.4-1-3.6-1c-1.5,0-2.9,0.5-4.2,1.4l-0.5,0.4L52,13l-0.6,0.1c-0.1,0-1.8,0.2-3,1.1
		c-0.1,0.1-0.2,0.1-0.3,0.2l-4.3-2L33.7,7.7c-0.4-0.4-1-0.7-1.8-0.7l0,0c-1.8,0-3.2,1.3-3.5,3.1c-0.2,1.4,0.6,2.5,0.9,2.7
		c0.7,0.8,2.7,1.3,4.2,1.3c1.3,0.1,1.5,0.3,1.7,0.9c0,0.1,0,0.1,0.1,0.2l-1-0.4c-0.2-0.1-0.4-0.2-0.7-0.3l-0.1,0l0,0
		c-0.1,0-0.3,0-0.4,0c-0.1,0-0.1,0-0.2,0l-0.1,0c-0.4,0.1-0.7,0.2-0.9,0.5c-0.6-0.3-1.7-0.8-2.4-1.1c-0.8-0.6-1.7-1-2.6-1
		c-0.7,0-1.3,0.2-1.9,0.6l0,0c-0.1,0.1-1.9,1.5-0.5,4.6c0.5,1,1.1,1.9,1.7,2.6l-4.9-2.5l-2.8,2.6l0.7,0.4c0.4,0.2,1.5,1.7,2.3,2.9
		l0,0c0.9,1.2,2,3.3,2.1,3.3l0.4,0.7l0,0l0,0l3.8,1.5l-0.1,0.9l-2.9-1.3c-0.3-0.4-0.8-0.6-1.4-0.5c-1,0.2-1.7,1.1-2,2.8l0,0
		c-0.1,0.8,0,1.4,0.3,1.8c0.3,0.3,0.6,0.5,1,0.5h0c0,0,0.1,0,0.1,0l0.5,0.4l-0.7,0.5l0.5,0.5c0.4,0.5,1.2,1.8,2,3.3l-0.1,0.4
		l-4.5-2.6l-3.5,2.3l0.4,0.5c0,0,0,0,0,0L17,39.2l-0.2-0.4L16.2,39c-0.2,0.1-4.1,1.6-5.4,2.4l-0.6,0.4l0.5,0.5c0,0,0.2,0.2,0.4,0.5
		c-0.6-0.3-2.2-1-3.5-1l0,0c-0.3,0-0.6,0-0.8,0c-0.5,0-1.1,0-1.5,0.1L4.6,42l0.1,0.6c0,0,0.2,1.3,0,3.9C4.4,49.3,4,52,4,52.1
		l-0.1,0.5l0.5,0.2c0,0,0.2,0.1,0.6,0.2c1.6,0.9,5.2,2.8,5.6,2.9c0.5,0.2,2.3,0.4,3.5-0.3c1.2-0.6,2-1.5,2.1-2c0,0,0.6,0.5,1.2,0.8
		c0.6,0.3,0.5,0.3,2.5-0.4c0,0,9.3-3.5,12.7-5.4s5.5-3.1,7.7-4.4c2.3-1.3,2.2-1.1,4.7-2.5s4-1.9,4-1.9l-0.6-1.1l1.7,0.7
		c0,0,1.9-1,4.3-1.9c2.4-0.9,3.8-1.2,3.8-1.2l-1-1.3c0,0,3.2,0.8,6.4-0.2c3.2-1.1,4.1-1.7,5.8-3.3c1.7-1.6,2.5-2.9,2.5-2.9l4.3,1.7
		c0,0,2.1,0.8,4.2,0c2.1-0.8,4-2.5,4.4-5.1C85.2,22.5,84.1,20.5,82.5,18.9z"/>
	<g>
		<path class="st1" d="M8.1,46.6c0,0-0.1-0.1,0.1-0.2c0.2-0.1,1.1-0.3,1.5-1.2c0.4-0.9,0-2.2-1-2.4c-1-0.3-2.4-0.3-3.4-0.1
			c0,0,0.3,1.3,0,4.1c-0.3,2.8-0.7,5.5-0.7,5.5s1.7,0.7,3.7,0.2c1.9-0.5,3-1.9,2.9-3S10.5,46.7,8.1,46.6z M7.1,43.8
			c0.6,0,1.1,0.4,1.1,1c0,0.5-0.5,1-1.1,1c-0.6,0-1.1-0.4-1.1-1C6,44.2,6.5,43.8,7.1,43.8z M7.4,50.8c-0.8,0-1.4-0.5-1.4-1.2
			c0-0.7,0.6-1.2,1.4-1.2c0.8,0,1.4,0.5,1.4,1.2C8.8,50.3,8.2,50.8,7.4,50.8z"/>
		<path class="st1" d="M17,49.1c-1.9,0.4-3.2-0.5-2.9-1.7c0,0,0.2-1.6,1.9-0.8l-0.2-1.7c0,0-0.6,0.7-1.3,0.7S13,44.9,13,43.8
			c0-1,1.2-3.8,4.1-1.6c0,0-0.3-2-0.6-2.7c0,0-4.1,1.6-5.3,2.4c0,0,1.3,1.5,1.7,4.4c0.4,2.9,0.2,5,0.2,5s2-0.3,4.2-1.1
			c2.2-0.8,2.4-1,2.4-1l-0.5-2.6C19.1,46.6,18.8,48.6,17,49.1z"/>
		<path class="st1" d="M25.5,42.6c0,0-0.4,2.8-1.6,3.2c-1.2,0.5-1.9-0.4-2.6-2.3c-0.7-1.9-1.2-3.3-1.4-4.7c-0.2-1.4-0.2-1.6-0.2-1.6
			l-2.1,1.4c0,0,1.6,2.3,2.6,4.6c1,2.3,1.4,5.1,1.4,5.1s3.6-1.5,4.9-2.6l-0.6-2.1L25.5,42.6z"/>
		<path class="st1" d="M27.1,39c-1.3-3.1-1.6-5.9-1.6-5.9l-2.3,1.7c0.8,0.8,2.4,3.9,3.2,5.8c0.8,1.8,1.5,4.5,1.5,4.5l2-1.5
			C30.1,43.6,28.5,42.1,27.1,39z"/>
		<path class="st1" d="M33.3,26.5l-2.7,2.2c2.3,2.9,3.3,5.2,3.3,5.2l-3.1,2c0,0,0,0-0.3-0.5c-0.5-0.9-1.9-5-1.9-5l-1.8,1.8
			c0.8,0.8,2.5,3.4,3.5,5.6c0.9,2.2,1.5,4.7,1.5,4.7l2.4-1.5c0,0,0,0-0.7-0.8c-0.7-0.8-2.1-3.4-2.1-3.4l3-1.9c0,0,0.5,1.2,0.8,2.5
			c0.3,1.3,0.5,2.6,0.5,2.6l2.3-1.5c0,0-1.6-2.1-2.9-5.2C33.6,30.4,33.3,26.5,33.3,26.5z"/>
		<path class="st1" d="M42.1,28.3c-1.8-2.5-3.7-6.2-3.7-6.2l-1.8,1.2C37.9,27.5,39,38,39,38l1.9-1.1l-0.7-3.4l2.4-1.4l2,2.9l2.4-1.2
			C47,33.8,43.9,30.9,42.1,28.3z M41.8,31.2c-0.2,0.1-0.3,0.2-0.3,0.2s-1.3,0.9-1.5,0.9c-0.3,0-0.2-0.7-0.6-2.5s-1.1-4.7-1.1-4.7
			c-0.2-1.3,0.6,0.4,0.6,0.4l2.7,5.1c0,0,0,0,0.2,0.3C41.9,31.1,42,31.1,41.8,31.2z"/>
		<path class="st1" d="M54,24c-1-2.7-2.1-5.9-2.2-7.3s-0.2-3-0.2-3s-1.6,0.2-2.7,1c-1.1,0.8-1.3,1-1.3,1s1.2,1.1,2.5,3.1
			c1.3,2,1.9,3.7,2.1,4.6c0.1,0.9,0.1,1.5-1.7-0.3c-1.7-1.8-3.6-4.4-6.4-4.3c-2.4,0.1-3,1.3-3.1,1.5c0,0,1.7-0.1,4.2,4.3
			c3,5.5,3.7,8.5,3.7,8.5l3.5-1.2c0,0-1.5-1-2.7-3c-1.3-2.1-1.9-3.6-3-5.1c-0.8-1.2-2.1-2.5-2.1-2.5s0.1-0.9,1.6,0.3
			c1.5,1.2,3.9,4.4,6.4,6.6c2.4,2.2,3.1,2.2,4.1,2.2c1,0,0.9-0.2,0.9-0.2S55,26.6,54,24z"/>
		<path class="st1" d="M52.7,12.8c0,0,2.2,2.6,3.9,7.2c1.7,4.6,2.1,6.1,2.3,7.6s0.3,2.3,0.3,2.3s3.4-0.3,5.4-3.1
			c2-2.8,1.9-5.9,0-9.6C62.7,13.6,57.2,9.3,52.7,12.8z M59.8,23c-0.7-0.3-0.9-1.4-1.6-3.5s-1.9-4.3-1.9-4.3
			c-0.3-2.1,1.8-1.6,3.4,0.5c0.5,0.7,1.2,1.6,1.6,3.2C62.4,22.9,60.5,23.3,59.8,23z"/>
		<path class="st1" d="M76.1,16.5c-1.4-1.1-7.6-3.9-9.4-5.1c-1.8-1.3-1.7-3-0.6-3.9c1.1-1,2.2-0.2,2.2-0.2c-1.6,0.6-1.3,2.7,0,3.2
			c1.3,0.5,3.5-0.6,3-2.9s-3.9-2.7-5.8-1.4c-2,1.3-2.5,4.2-1.6,6.6c0.9,2.5,4.8,4.2,7,5.5c2.3,1.2,4.2,1.9,4.2,4.6s-2.8,3.2-2.8,3.2
			c-0.8,0.1-2.4-0.2-2.1-0.4c2.7-2.7-0.8-4.8-2.2-3.3c-1.9,2.1,0.9,4.5,3.5,4.8c2.6,0.3,6-1.4,6.8-4.9S76.1,16.5,76.1,16.5z"/>
		<path class="st1" d="M23.3,29.3c-1.1,0.2-1.4,1.6-1.5,2.3c-0.3,2,1.2,1.8,1.9,0.9C24.4,31.5,24.8,29,23.3,29.3z"/>
		<path class="st1" d="M21.9,23.7c0.9,1.2,2.1,3.4,2.1,3.4l3.3-3l-1.5-1.7c0,0,0.2,1,0,1.8c-0.2,0.8-1.3,1.1-2.5,0
			c-1.2-1.1-2.4-4.9-2.4-4.9l-1.5,1.4C20.1,21.1,21.9,23.7,21.9,23.7z"/>
		<path class="st1" d="M29.5,21.7c1.2,0,2.6-0.9,1.8-3.6c-0.8-2.7-3.6-5.4-5.9-3.8c0,0-1.5,1.1-0.3,3.7S28.4,21.7,29.5,21.7z
			 M25.5,15.3c0.2-0.8,1-0.8,1.4-0.6c0.4,0.2,1.1,0.9,1.3,1.9c0.3,1-0.1,1.4-0.7,1.5c-0.6,0.1-1.2-0.4-1.7-1.3
			C25.4,16,25.5,15.3,25.5,15.3z"/>
		<path class="st1" d="M33.4,13.6c1.4,0.1,1.8,0.3,2.2,1.2c0.4,0.9-0.1,1.6-0.1,1.6c-0.4,0.8-1.8,1.2-1.5,0.5
			c0.6-1.3-0.2-1.9-1.1-1.8c-1.4,0.3-1.2,1.9,0.1,2.5c2,0.9,5.1-0.3,4.8-3.2c-0.3-3.4-4.3-2.8-5.2-2.8c-0.8,0-1.7-0.2-2.2-0.9
			c-0.7-1.1,0.1-1.9,0.8-2c0.7-0.1,1,0.2,1,0.2s-0.4,0.6-0.3,1c0.1,0.4,0.9,1.1,1.5,0.2s0.2-2.2-1.4-2.2c-1.6,0-2.6,1.2-2.8,2.6
			c-0.2,0.9,0.3,1.7,0.7,2.1C30.3,13.1,32,13.6,33.4,13.6z"/>
	</g>
</g>
</svg>
